<svg xmlns="http://www.w3.org/2000/svg" xmlns:xlink="http://www.w3.org/1999/xlink" viewBox="0 0 156.44000244140625 199.1824951171875" fill="currentColor"><path d="M78.22,170.74c3.93,0 7.11,3.18 7.11,7.11v14.22c0,3.93 -3.18,7.11 -7.11,7.11c-3.92,0 -7.11,-3.18 -7.11,-7.11v-14.22c0,-3.93 3.18,-7.11 7.11,-7.11zM106.67,170.74c3.92,0 7.11,3.18 7.11,7.11v14.22c0,3.93 -3.19,7.11 -7.11,7.11c-3.93,0 -7.11,-3.18 -7.11,-7.11v-14.22c0,-3.93 3.18,-7.11 7.11,-7.11zM49.78,170.74c3.93,0 7.11,3.18 7.11,7.11v14.22c0,2.54 -1.36,4.89 -3.56,6.16c-2.2,1.27 -4.91,1.27 -7.11,0c-2.2,-1.27 -3.55,-3.62 -3.55,-6.16v-14.22c0,-3.93 3.18,-7.11 7.11,-7.11zM78.22,0c28.2,0 56.15,28.07 56.15,80.46v1.02c13.65,6.85 22.07,20.23 22.07,35.32c0,14.48 -6.8,26.06 -20.41,34.74c-1.81,1.16 -4.04,1.44 -6.07,0.76c-2.04,-0.68 -3.66,-2.23 -4.41,-4.24l-0.91,-2.42c-0.84,-2.23 -2.75,-3.88 -5.07,-4.4c-2.33,-0.51 -4.75,0.18 -6.45,1.85l-9.42,9.24c-2.66,2.61 -6.23,4.07 -9.95,4.06h-31.03c-3.74,0 -7.33,-1.47 -9.99,-4.1l-9.34,-9.22c-1.66,-1.64 -4.05,-2.32 -6.33,-1.8c-2.27,0.52 -4.13,2.17 -4.91,4.37l-0.82,2.3c-0.72,2.03 -2.33,3.62 -4.36,4.33c-2.03,0.7 -4.28,0.45 -6.11,-0.69c-13.91,-8.69 -20.86,-20.28 -20.86,-34.78c0,-15.01 8.35,-28.7 21.4,-35.33v-1.03c0,-58.71 28.63,-80.44 56.82,-80.44zM49.78,64c0,15.69 12.76,28.44 28.44,28.44c15.69,0 28.45,-12.75 28.45,-28.44c0,-15.69 -12.76,-28.44 -28.45,-28.44c-15.68,0 -28.44,12.75 -28.44,28.44zM78.22,49.78c7.84,0 14.22,6.38 14.22,14.22c0,7.84 -6.38,14.22 -14.22,14.22c-7.83,0 -14.22,-6.38 -14.22,-14.22c0,-7.84 6.39,-14.22 14.22,-14.22z"></path></svg>